<svg xmlns="http://www.w3.org/2000/svg" viewBox="0 0 169.86 164.75"><defs><style>.cls-1{fill:#fff;}</style></defs><g id="Layer_2" data-name="Layer 2"><path d="M25.36,110.81a5.29,5.29,0,0,0-4.93-5.6c-5.35-.78-11.25-5.12-16.14-13.47S-1.84,80.61,3.39,76A13.22,13.22,0,0,1,9.85,73.7c3.68-.22-1.11-1.67-2.56-9S6.07,53.55,11.86,50.21s10-3,10-3-3.11-8,4.46-11.36c2.46-1.09,4.27-2.06,6.31-1.6,1.88.41,7.6,5.39,7.6,5.39s-1.56-18-1.11-23S44,8,49.71,12.7a58.24,58.24,0,0,1,8.57,8.46s7-12.36,10.46-16.7S78.87-3.45,88.89,5.79a51,51,0,0,1,4.46,7.8,8.09,8.09,0,0,1,7.45-.67c3.9,1.78,3.46,5.12,3.46,5.12s17.14-7.46,21.59-7.24,8.91,2.56,3.57,11.92l-4.35,6.56s14.25-3,18.15.45,8.24,10.24,7.46,14.81-6.12,4.89-6.12,4.89,9.12,6.91,14.13,13.81,10.47,15.09,11.14,20.12c.63,4.67-8.46,5.61-9.31,5.53s-2.61,1.4-.05,3.74,4.79,9,3.79,13.8-4.79,6.57-7.79,9.58-11.58,3.67-11.58,3.67,6.23,6.46,2.45,12-5,6.57-12,6.24c0,0,1.55,13.91-2.34,16.81s-7.35,4.67-16.48-7.13c0,0-6.23,15.14-14.36,16.7S89.78,163,86.72,159a47.52,47.52,0,0,1-4.4-6.68s-2.11,7.79-13.24,5.12c0,0-6.68-2.67-6.35-9.8,0,0-15.25,11.14-25,6.46,0,0-8-3.45,1-14,0,0-10.57.34-16.69-5.23s-7.46-4.67-7.46-11.13,3.11-7.91,5.56-9.46S25.36,110.81,25.36,110.81Z"/></g><g id="Layer_3" data-name="Layer 3"><path class="cls-1" d="M45.14,80l1.63-3s.45-1.36,1.14-1,1.38,1.25,6.52,2.35C59.78,79.4,59,75.89,59,75.89s.08-2.15-5.63-3.77-8.62-3.55-8.44-9a8.35,8.35,0,0,1,2.71-6.32,13,13,0,0,1,8.68-3.49,18.09,18.09,0,0,1,9.94,3.28,2,2,0,0,1,.4,1.14c0,.73-2,3.89-2,3.89A2.88,2.88,0,0,1,63,61.43a20.7,20.7,0,0,0-5.32-1.15c-3.69-.5-4.66,1.54-4.66,2.55s2.09,3,6.39,4.29a14.86,14.86,0,0,1,6.84,4.4c.77,1.13,3.42,6.61-.29,10.73a8.59,8.59,0,0,1-3.87,2.66,13.43,13.43,0,0,1-5.78.93,27.5,27.5,0,0,1-7.47-1.26A9.6,9.6,0,0,1,46,82.9s-1.58-.85-1.58-1.38A4.46,4.46,0,0,1,45.14,80Z"/><path class="cls-1" d="M76.09,79.82,70.23,56.23a2.88,2.88,0,0,1,.43-1.59,1.22,1.22,0,0,1,1-.36H77a1.36,1.36,0,0,1,1.09.3c.65.43.65,2,.65,2l4.41,20.77s.3,1.27.79,1.24.68-1.2.68-1.2l4.68-22.18a1.57,1.57,0,0,1,.43-.8,1.68,1.68,0,0,1,1-.26l5.64,0a1.77,1.77,0,0,1,1,.36c.29.26,0,1.31,0,1.31L90.78,82.93a2.34,2.34,0,0,1-.67,1.36,2.24,2.24,0,0,1-1.43.45l-9.84,0a1,1,0,0,1-.94-.31A45.83,45.83,0,0,1,76.09,79.82Z"/><path class="cls-1" d="M47.11,115.82V90.11s0-.37.62-1a2.14,2.14,0,0,1,1.35-.72l3.35,0s.37-.14,1,.41,12.06,14.54,12.06,14.54.48.64.63.65.23-.47.23-1.75,0-13.07,0-13.07a.7.7,0,0,1,.24-.54,3.36,3.36,0,0,1,1.41-.25h4a1.64,1.64,0,0,1,.91.46A2.27,2.27,0,0,1,73.17,90v25.73a2.14,2.14,0,0,1-.54,1.35,3,3,0,0,1-1,.2H68.53a4.8,4.8,0,0,1-1-.18,2.79,2.79,0,0,1-.77-.77L55.3,102.89s-.61-.82-1-.76-.29.81-.29.81v13.68a.93.93,0,0,1-.3.69,4.34,4.34,0,0,1-.73.44l-4.72,0a1.66,1.66,0,0,1-.84-.49A4.52,4.52,0,0,1,47.11,115.82Z"/><path class="cls-1" d="M77.64,88.35h4.84a1.27,1.27,0,0,1,.91.41,7.18,7.18,0,0,1,.78,1.33l4.11,8a.75.75,0,0,0,.74.66c.66,0,.91-.74.91-.74l4.33-8.48a3.08,3.08,0,0,1,.6-.83,2.67,2.67,0,0,1,.92-.41h5.46a.92.92,0,0,1,.48.47.8.8,0,0,1-.07.75l-7.71,15.16s-.47,1.26-.51,1.54-.05,1.43-.05,1.43v9s-.14.51-.37.64a4.24,4.24,0,0,1-.87.28H86.25a2.12,2.12,0,0,1-1.1-.34,1.41,1.41,0,0,1-.29-.76l.1-9.16a8.67,8.67,0,0,0-.12-1.31,4.91,4.91,0,0,0-.44-.81L76.53,89.68a1,1,0,0,1,.32-1A1.23,1.23,0,0,1,77.64,88.35Z"/><path class="cls-1" d="M122.83,95.73,124.76,93a2.26,2.26,0,0,0,.64-1.11c.11-.84-2.31-2.27-2.31-2.27s-2.28-1.79-7.46-1.85a13.12,13.12,0,0,0-9.54,4c-1.2,1.18-4,7.09-3.9,11.13s1.15,9.1,4.64,12a13.05,13.05,0,0,0,9.1,2.95c3.44,0,8.2-2.66,8.2-2.66s.78-.28.84-.88a2.37,2.37,0,0,0-.31-1.23L123,109.7a1.11,1.11,0,0,0-.95-.59,2.1,2.1,0,0,0-1.09.29,10.82,10.82,0,0,1-4.66,1.31c-2.53.06-6.2-2.22-6.15-7.46s2.32-8.5,5.57-8.53c3.45,0,4.78.87,4.78.87a3.21,3.21,0,0,0,1.28.47C122.63,96.12,122.83,95.73,122.83,95.73Z"/><path class="cls-1" d="M124.55,81.62,118,55.29a3.27,3.27,0,0,0-.5-1,1.43,1.43,0,0,0-.73-.34H105.32a2.46,2.46,0,0,0-.69.56,3.49,3.49,0,0,0-.55,1.19l-7,26.07a10.37,10.37,0,0,0-.26,2.12c0,1.16,1.38,1,1.38,1h5.69a1.29,1.29,0,0,0,.84-.28,4.38,4.38,0,0,0,.58-1.19l1.14-5.26,9.19,0,1.22,5a3,3,0,0,0,.56,1,1.24,1.24,0,0,0,.66.4h5.38a1.54,1.54,0,0,0,1.1-.5C125,83.49,124.55,81.62,124.55,81.62ZM114.12,72a.46.46,0,0,1-.18.2h-6a.83.83,0,0,0-.12-.13c-.06,0,0-.23,0-.23l2.64-13.22s.09-.23.24-.23.23.22.23.22l3.15,13.11A.26.26,0,0,1,114.12,72Z"/></g></svg>