<?xml version="1.0" encoding="utf-8"?>
<!-- Generator: Adobe Illustrator 25.0.1, SVG Export Plug-In . SVG Version: 6.00 Build 0)  -->
<svg version="1.1" id="Layer_2" xmlns="http://www.w3.org/2000/svg" xmlns:xlink="http://www.w3.org/1999/xlink" x="0px" y="0px"
	 viewBox="0 0 171.4 37.8" style="enable-background:new 0 0 171.4 37.8;" xml:space="preserve">
<polygon points="170.6,15.5 170.7,15.6 170.6,15.7 161.1,25.8 158.4,23.6 164.3,17.4 142.9,17.4 142.9,13.9 164.2,13.9 158.4,7.7 
	161.1,5.5 "/>
<g>
	<path d="M10.3,20.8L10.3,20.8c0.3-1.2,0.5-2.6,0.9-4l4.2-16.3h6.9l4.1,16.4c0.3,1.2,0.6,2.6,0.9,4.2h0.1c0.2-1.6,0.5-3,0.7-4.3
		l3.4-16.4h5.9l-6.9,28.6h-6.2l-4.8-18.6c-0.3-1.2-0.6-2.4-0.7-3.6h-0.1c-0.2,1.4-0.4,2.5-0.7,3.5l-4.8,18.7H6.9L0.2,0.4h6l3.4,16.3
		C9.9,18,10.1,19.3,10.3,20.8z"/>
	<path d="M48.9,12.8c-1.4,0-2.5,0.6-3.2,1.7c-0.7,1.1-1.1,2.7-1.1,4.8v9.8h-5.5V8.3h5.1v2.9h0.1c0.7-1.2,1.5-2.1,2.3-2.6
		s1.8-0.8,3-0.8c0.7,0,1.3,0.1,1.9,0.2c0.6,0.2,1.1,0.4,1.7,0.7l-1.8,4.9c-0.3-0.2-0.7-0.4-1.2-0.6C49.8,12.9,49.3,12.8,48.9,12.8z"
		/>
	<path d="M55.9,5.5V0.4h5.5v5.1H55.9z M55.9,29.1V8.3h5.5v20.7H55.9z"/>
	<path d="M76.8,8.3v4.4h-3.9v10.1c0,0.6,0,1.1,0.1,1.4c0.1,0.3,0.2,0.5,0.4,0.6c0.2,0.1,0.5,0.2,1,0.2c0.7,0,1.4-0.1,2.2-0.3
		l0.7,4.2c-0.6,0.2-1.3,0.4-2,0.5s-1.5,0.2-2.2,0.2c-1.5,0-2.6-0.2-3.4-0.6s-1.4-1.1-1.7-2s-0.5-2.2-0.5-3.8V12.7h-2.9V8.3h2.9V4.6
		l5.5-3.9v7.7H76.8z"/>
	<path d="M80.7,5.5V0.4h5.5v5.1H80.7z M80.7,29.1V8.3h5.5v20.7H80.7z"/>
	<path d="M104.6,16.1c0-1.3-0.2-2.3-0.7-3s-1.3-1-2.5-1c-1.3,0-2.3,0.5-3.1,1.4c-0.8,0.9-1.2,2.3-1.2,4.1v11.5h-5.5V8.3h5.1v2.7
		c0.7-1,1.7-1.8,2.7-2.4c1.1-0.5,2.3-0.8,3.6-0.8c2.3,0,4,0.6,5.2,1.8c1.2,1.2,1.8,2.9,1.8,5.1v14.2h-5.5V16.1z"/>
	<path d="M134.5,8.3v18.8c0,2.5-0.4,4.4-1.1,6s-1.8,2.6-3.3,3.3s-3.4,1-5.8,1c-5.8,0-9-2.3-9.4-7l5.7,0.9c0.1,0.7,0.5,1.1,1.1,1.5
		c0.6,0.3,1.6,0.5,2.8,0.5c1.5,0,2.6-0.4,3.4-1.2c0.8-0.8,1.2-2,1.2-3.7v-2.2H129c-0.5,0.8-1.4,1.5-2.4,2s-2.3,0.8-3.6,0.8
		c-1.7,0-3.3-0.4-4.6-1.3c-1.3-0.9-2.4-2.1-3.1-3.7c-0.7-1.6-1.1-3.4-1.1-5.4c0-2.2,0.4-4.2,1.1-5.8s1.7-2.8,3.1-3.7
		s2.9-1.3,4.7-1.3c1.4,0,2.6,0.3,3.7,0.8c1.1,0.5,2,1.3,2.6,2.2h0.1V8.3H134.5z M124.2,12.2c-0.9,0-1.7,0.3-2.4,0.8
		c-0.7,0.5-1.2,1.2-1.5,2.1c-0.3,0.9-0.5,2-0.5,3.2c0,1.3,0.2,2.4,0.5,3.4s0.9,1.8,1.6,2.3c0.7,0.6,1.5,0.8,2.4,0.8
		c1,0,1.8-0.3,2.5-0.8s1.3-1.3,1.7-2.3s0.6-2.1,0.6-3.4c0-1.2-0.2-2.2-0.6-3.2c-0.4-0.9-1-1.7-1.7-2.2S125.1,12.2,124.2,12.2z"/>
</g>
</svg>
