<?xml version="1.0" encoding="utf-8"?>
<!-- Generator: Adobe Illustrator 25.0.1, SVG Export Plug-In . SVG Version: 6.00 Build 0)  -->
<svg version="1.1" id="Layer_2" xmlns="http://www.w3.org/2000/svg" xmlns:xlink="http://www.w3.org/1999/xlink" x="0px" y="0px"
	 viewBox="0 0 156.8 29.7" style="enable-background:new 0 0 156.8 29.7;" xml:space="preserve">
<g>
	<path d="M59.2,11.6v-11H65v28.6h-5.8V16.4H47.9v12.8h-5.8V0.6h5.8v11H59.2z"/>
	<path d="M69.7,15c0-3,0.6-5.7,1.7-7.9s2.8-4,4.9-5.2s4.6-1.8,7.4-1.8c2.8,0,5.3,0.6,7.4,1.8c2.1,1.2,3.7,3,4.9,5.2
		c1.1,2.2,1.7,4.8,1.7,7.8c0,2.9-0.6,5.5-1.7,7.7s-2.7,4-4.8,5.2s-4.6,1.9-7.4,1.9s-5.3-0.6-7.4-1.8s-3.8-3-4.9-5.2
		S69.7,17.9,69.7,15z M83.7,5c-1.6,0-3.1,0.4-4.3,1.3s-2.1,2-2.8,3.5s-1,3.2-1,5.1s0.3,3.6,0.9,5.1s1.5,2.6,2.8,3.5s2.7,1.3,4.3,1.3
		c1.7,0,3.1-0.4,4.3-1.2s2.1-2,2.8-3.5s0.9-3.2,0.9-5.2c0-1.9-0.3-3.6-0.9-5c-0.6-1.5-1.5-2.6-2.8-3.5S85.3,5,83.7,5z"/>
	<path d="M122.5,0.6h8.7v28.6h-5.4V6.6l-6.2,22.6h-5.5l-6.3-22.6v22.6h-5.4V0.6h8.7l5.8,20.3L122.5,0.6z"/>
	<path d="M143,5.4v6.5h12v4.8h-12v7.6h13.8v4.8h-19.6V0.6h18.9v4.8H143z"/>
</g>
<polygon points="0.1,14.4 0,14.3 0.1,14.2 9.6,4.2 12.3,6.4 6.5,12.6 27.9,12.6 27.9,16.1 6.5,16.1 12.3,22.2 9.6,24.4 "/>
</svg>
