{
    "asset" : {
        "generator" : "Khronos glTF Blender I/O v1.4.40",
        "version" : "2.0"
    },
    "extensionsUsed" : [
        "KHR_materials_clearcoat"
    ],
    "scene" : 0,
    "scenes" : [
        {
            "name" : "Scene",
            "nodes" : [
                0,
                1,
                2
            ]
        }
    ],
    "nodes" : [
        {
            "name" : "Light",
            "rotation" : [
                0.16907575726509094,
                0.7558803558349609,
                -0.27217137813568115,
                0.570947527885437
            ],
            "translation" : [
                5.935649871826172,
                5.903861999511719,
                12.633554458618164
            ]
        },
        {
            "name" : "Camera",
            "rotation" : [
                0.6642866730690002,
                -0.27796798944473267,
                0.29373329877853394,
                0.6286316514015198
            ],
            "translation" : [
                -26.0648193359375,
                -2.2398548126220703,
                23.151412963867188
            ]
        },
        {
            "mesh" : 0,
            "name" : "Mball.041_Mesh",
            "rotation" : [
                0.7071068286895752,
                0,
                0,
                0.7071067094802856
            ]
        }
    ],
    "animations" : [
        {
            "channels" : [
                {
                    "sampler" : 0,
                    "target" : {
                        "node" : 2,
                        "path" : "rotation"
                    }
                },
                {
                    "sampler" : 1,
                    "target" : {
                        "node" : 2,
                        "path" : "scale"
                    }
                }
            ],
            "name" : "Mball.041_MeshAction",
            "samplers" : [
                {
                    "input" : 4,
                    "interpolation" : "STEP",
                    "output" : 5
                },
                {
                    "input" : 4,
                    "interpolation" : "STEP",
                    "output" : 6
                }
            ]
        }
    ],
    "materials" : [
        {
            "doubleSided" : true,
            "extensions" : {
                "KHR_materials_clearcoat" : {
                    "clearcoatFactor" : 0.9636363983154297,
                    "clearcoatRoughnessFactor" : 0.26818183064460754
                }
            },
            "name" : "Material.001",
            "pbrMetallicRoughness" : {
                "baseColorFactor" : [
                    0.8000000715255737,
                    0,
                    0.004854928236454725,
                    1
                ],
                "metallicFactor" : 0.30000001192092896,
                "roughnessFactor" : 0
            }
        }
    ],
    "meshes" : [
        {
            "name" : "Mball.041_Mesh",
            "primitives" : [
                {
                    "attributes" : {
                        "POSITION" : 0,
                        "NORMAL" : 1,
                        "TEXCOORD_0" : 2
                    },
                    "indices" : 3,
                    "material" : 0
                }
            ]
        }
    ],
    "accessors" : [
        {
            "bufferView" : 0,
            "componentType" : 5126,
            "count" : 2729,
            "max" : [
                11.082426071166992,
                3.3555750846862793,
                5.927883148193359
            ],
            "min" : [
                -11.52905559539795,
                -3.2564260959625244,
                -6.734900951385498
            ],
            "type" : "VEC3"
        },
        {
            "bufferView" : 1,
            "componentType" : 5126,
            "count" : 2729,
            "type" : "VEC3"
        },
        {
            "bufferView" : 2,
            "componentType" : 5126,
            "count" : 2729,
            "type" : "VEC2"
        },
        {
            "bufferView" : 3,
            "componentType" : 5123,
            "count" : 10386,
            "type" : "SCALAR"
        },
        {
            "bufferView" : 4,
            "componentType" : 5126,
            "count" : 1,
            "max" : [
                0
            ],
            "min" : [
                0
            ],
            "type" : "SCALAR"
        },
        {
            "bufferView" : 5,
            "componentType" : 5126,
            "count" : 1,
            "type" : "VEC4"
        },
        {
            "bufferView" : 6,
            "componentType" : 5126,
            "count" : 1,
            "type" : "VEC3"
        }
    ],
    "bufferViews" : [
        {
            "buffer" : 0,
            "byteLength" : 32748,
            "byteOffset" : 0
        },
        {
            "buffer" : 0,
            "byteLength" : 32748,
            "byteOffset" : 32748
        },
        {
            "buffer" : 0,
            "byteLength" : 21832,
            "byteOffset" : 65496
        },
        {
            "buffer" : 0,
            "byteLength" : 20772,
            "byteOffset" : 87328
        },
        {
            "buffer" : 0,
            "byteLength" : 4,
            "byteOffset" : 108100
        },
        {
            "buffer" : 0,
            "byteLength" : 16,
            "byteOffset" : 108104
        },
        {
            "buffer" : 0,
            "byteLength" : 12,
            "byteOffset" : 108120
        }
    ],
    "buffers" : [
        {
            "byteLength" : 108132,
            "uri" : "data:application/octet-stream;base64,"
        }
    ]
}
